<svg xmlns="http://www.w3.org/2000/svg" width="1200.1" height="176.1" overflow="visible"><style>#newblue_1_{stroke-dashoffset:1352px;stroke-dasharray:1352px;animation:draw 3s forwards 0.75s;animation-timing-function:ease-in-out;}@keyframes draw{ from {stroke-dashoffset:1352px;}to{stroke-dashoffset:0;}}.st0{fill:#3499cc}.st1{fill:#414141}.st2{fill:none;stroke:#414141;stroke-width:3.8;stroke-miterlimit:10}.st3{fill:#fff}</style><g id="Group_12933_1_" transform="translate(319.422 1438)"><path id="Path_18077_1_" class="st0" d="M-206.6-1434.2h40.8v11.3h-40.8v-11.3z"/><g id="Group_12932_1_"><g id="Group_12925_1_" transform="translate(293.829)"><path id="Path_18038_1_" class="st1" d="M-180-1369.3h-6.4l-54-30c.3-.8.4-1.7.4-2.6 0-.9-.8-1.7-1.8-1.7-.9 0-1.7.8-1.7 1.7 0 .3 0 .6-.1.8l-4.2-2.3c-.5-.3-1.1-.3-1.7 0l-4.2 2.3c-.1-.3-.1-.6-.1-.8 0-2.8 2.3-5.1 5.1-5.1.9 0 1.7-.8 1.7-1.7v-5.1h5.1c.8 0 1.6-.6 1.7-1.4l3.4-20.6c.1-.9-.5-1.8-1.4-2H-259.1c-1 0-1.7.8-1.7 1.7v.3l3.4 20.6c.1.8.9 1.4 1.7 1.4h5.1v3.6c-4.6.9-7.6 5.5-6.7 10.1.1.3.1.6.2.9l-54 30h-6.4c-.9 0-1.7.8-1.7 1.7v68.6c0 .9.8 1.7 1.7 1.7H-180c.9 0 1.7-.8 1.7-1.7v-68.6c0-1.1-.7-1.8-1.7-1.8zm-74.1-48.1l-2.9-17.2h16.5l-2.9 17.2h-10.7zm5.5 17.4l3.4 1.9c-1.9 1.7-4.8 1.7-6.8 0l3.4-1.9zm-6.6 3.6c3.1 3.6 8.5 4 12.1 1 .3-.3.7-.6 1-1l48.7 27h-110.3l48.5-27zm73.5 95.7h-133.9v-65.2h133.9v65.2z"/><path id="Path_18039_1_" class="st1" d="M-310.4-1304.1h6.9c.9 0 1.7-.8 1.7-1.7v-53.2h5.1c.9 0 1.7-.8 1.7-1.7s-.8-1.7-1.7-1.7h-6.9c-.9 0-1.7.8-1.7 1.7v53.2h-5.1c-.9 0-1.7.8-1.7 1.7s.7 1.7 1.7 1.7z"/><path id="Path_18040_1_" class="st1" d="M-298.4-1305.8c0 .9.8 1.7 1.7 1.7h6.9c.9 0 1.7-.8 1.7-1.7v-53.2h5.1c.9 0 1.7-.8 1.7-1.7 0-.9-.8-1.7-1.7-1.7h-6.9c-.9 0-1.7.8-1.7 1.7v53.2h-5.1c-.9-.1-1.7.7-1.7 1.7z"/><path id="Path_18041_1_" class="st1" d="M-284.7-1305.8c0 .9.8 1.7 1.7 1.7h6.9c.9 0 1.7-.8 1.7-1.7v-53.2h5.1c.9 0 1.7-.8 1.7-1.7 0-.9-.8-1.7-1.7-1.7h-6.9c-.9 0-1.7.8-1.7 1.7v53.2h-5.1c-.9-.1-1.7.7-1.7 1.7z"/><path id="Path_18042_1_" class="st1" d="M-271-1305.8c0 .9.8 1.7 1.7 1.7h6.9c.9 0 1.7-.8 1.7-1.7v-53.2h5.1c.9 0 1.7-.8 1.7-1.7 0-.9-.8-1.7-1.7-1.7h-6.9c-.9 0-1.7.8-1.7 1.7v53.2h-5.1c-.9-.1-1.7.7-1.7 1.7z"/><path id="Path_18043_1_" class="st1" d="M-257.2-1305.8c0 .9.8 1.7 1.7 1.7h6.9c.9 0 1.7-.8 1.7-1.7v-53.2h5.1c.9 0 1.7-.8 1.7-1.7 0-.9-.8-1.7-1.7-1.7h-6.9c-.9 0-1.7.8-1.7 1.7v53.2h-5.1c-1-.1-1.7.7-1.7 1.7z"/><path id="Path_18044_1_" class="st1" d="M-243.5-1305.8c0 .9.8 1.7 1.7 1.7h6.9c.9 0 1.7-.8 1.7-1.7v-53.2h5.1c.9 0 1.7-.8 1.7-1.7 0-.9-.8-1.7-1.7-1.7h-6.9c-.9 0-1.7.8-1.7 1.7v53.2h-5.1c-.9-.1-1.7.7-1.7 1.7z"/><path id="Path_18045_1_" class="st1" d="M-229.8-1305.8c0 .9.8 1.7 1.7 1.7h6.9c.9 0 1.7-.8 1.7-1.7v-53.2h5.1c.9 0 1.7-.8 1.7-1.7 0-.9-.8-1.7-1.7-1.7h-6.9c-.9 0-1.7.8-1.7 1.7v53.2h-5.1c-.9-.1-1.7.7-1.7 1.7z"/><path id="Path_18046_1_" class="st1" d="M-216-1305.8c0 .9.8 1.7 1.7 1.7h6.9c.9 0 1.7-.8 1.7-1.7v-53.2h5.1c.9 0 1.7-.8 1.7-1.7 0-.9-.8-1.7-1.7-1.7h-6.9c-.9 0-1.7.8-1.7 1.7v53.2h-5.1c-1-.1-1.7.7-1.7 1.7z"/><path id="Path_18047_1_" class="st1" d="M-202.3-1305.8c0 .9.8 1.7 1.7 1.7h6.9c.9 0 1.7-.8 1.7-1.7v-53.2h5.1c.9 0 1.7-.8 1.7-1.7 0-.9-.8-1.7-1.7-1.7h-6.9c-.9 0-1.7.8-1.7 1.7v53.2h-5.1c-.9-.1-1.7.7-1.7 1.7z"/></g><g id="Group_12926_1_" transform="translate(61.283)"><path id="Path_18048_1_" class="st1" d="M-179.4-1355.5L-248-1383c-.4-.2-.9-.2-1.3 0l-68.7 27.5c-.7.3-1.1.9-1.1 1.6 0 11.1 10.8 20.1 21.2 28.8 5.7 4.8 11.6 9.7 15.5 14.8.6.8 1.6.9 2.4.3.8-.6.9-1.6.3-2.4-4.1-5.4-10.1-10.4-16-15.3-9.4-7.8-19.2-16-19.9-25l65.2-26.1v66.3c0 .9.8 1.7 1.7 1.7s1.7-.8 1.7-1.7v-66.3l65.2 26.1c-.8 9-10.5 17.1-19.9 25-5.9 4.9-11.9 9.9-16 15.3-.6.8-.4 1.8.3 2.4s1.8.4 2.4-.3c3.8-5.1 9.7-10 15.5-14.8 10.4-8.7 21.2-17.7 21.2-28.8 0-.7-.4-1.3-1.1-1.6z"/><path id="Path_18049_1_" class="st1" d="M-180-1300.7c-3.8 0-7.4-1.8-9.7-5-1.9-2.2-5.2-2.5-7.5-.6-.2.2-.5.4-.6.7-3.9 5.3-11.3 6.5-16.7 2.6-1-.7-1.9-1.6-2.7-2.7-1.9-2.2-5.2-2.5-7.5-.6-.2.2-.5.4-.7.7-3.9 5.3-11.3 6.5-16.7 2.6-1-.7-1.9-1.6-2.7-2.7-1.9-2.2-5.2-2.5-7.5-.6-.2.2-.5.4-.6.7-3.9 5.3-11.3 6.5-16.7 2.6-1-.7-1.9-1.6-2.7-2.7-1.9-2.2-5.2-2.5-7.5-.6-.2.2-.5.4-.6.7-3.9 5.3-11.3 6.5-16.7 2.6-1-.7-1.9-1.6-2.7-2.7-1.9-2.2-5.2-2.5-7.5-.6-.2.2-.5.4-.6.7-2.2 3.1-5.8 4.9-9.7 4.9-.9 0-1.7.8-1.7 1.7 0 .9.8 1.7 1.7 1.7 4.9 0 9.5-2.3 12.4-6.3.7-.7 1.8-.8 2.5-.1l.1.1c5 6.9 14.6 8.4 21.5 3.4 1.3-.9 2.4-2.1 3.4-3.4.7-.7 1.8-.8 2.5-.1l.1.1c5 6.9 14.6 8.4 21.5 3.4 1.3-.9 2.4-2.1 3.4-3.4.7-.7 1.8-.8 2.5-.1l.1.1c5 6.9 14.6 8.4 21.5 3.4 1.3-.9 2.4-2.1 3.4-3.4.7-.7 1.8-.8 2.5-.1l.1.1c5 6.9 14.6 8.4 21.5 3.4 1.3-.9 2.4-2.1 3.4-3.4.7-.7 1.8-.8 2.5-.1l.1.1c2.9 4 7.5 6.3 12.4 6.3.9 0 1.7-.8 1.7-1.7.2-.9-.5-1.7-1.5-1.7z"/><path id="Path_18050_1_" class="st1" d="M-231.5-1438h-34.3c-2.8 0-5.1 2.3-5.1 5.1v8.6h-39.5c-.9 0-1.7.8-1.7 1.7v58.5c0 .9.8 1.7 1.7 1.7s1.7-.8 1.7-1.7v-15.6h27.5v3.2c0 .9.8 1.7 1.8 1.7.9 0 1.7-.8 1.7-1.7v-3.2h10.6c.9 0 1.7-.8 1.7-1.7 0-.9-.8-1.7-1.7-1.7h-10.6v-17.2h27.5v11.5c0 .9.8 1.7 1.7 1.7s1.7-.8 1.7-1.7v-11.5h27.5v17.2h-10.6c-.9 0-1.7.8-1.7 1.7 0 .9.8 1.7 1.7 1.7h10.6v3.2c0 .9.8 1.7 1.7 1.7s1.7-.8 1.7-1.7v-3.2h27.5v15.6c0 .9.8 1.7 1.7 1.7s1.7-.8 1.7-1.7v-58.5c0-.9-.8-1.7-1.7-1.7h-39.5v-8.6c-.1-2.8-2.4-5.1-5.3-5.1zm-49.8 54.9h-27.5v-17.2h27.5v17.2zm0-20.6h-27.5v-17.2h27.5v17.2zm65.3-17.1h27.5v17.2H-216v-17.2zm0 20.6h27.5v17.2H-216v-17.2zm-34.4-3.5h-27.5v-17.2h27.5v17.2zm-17.1-20.6v-8.6c0-.9.8-1.7 1.7-1.7h34.3c.9 0 1.7.8 1.7 1.7v8.6h-37.7zm48 3.5v17.2H-247v-17.2h27.5z"/><path id="Path_18051_1_" class="st1" d="M-263.5-1344.5c3.4-1.2 4.8-5.8 3.1-10.4-1.6-4.6-5.6-7.3-9-6.1-3.4 1.2-4.8 5.8-3.1 10.4 1.6 4.3 5.3 7.4 9 6.1zm-4.7-13.3c1.4-.4 3.6 1.1 4.6 4 1 3 .3 5.6-1 6-1.4.5-3.6-1.1-4.6-4s-.4-5.6 1-6z"/><path id="Path_18052_1_" class="st1" d="M-224.8-1350.7c1.6-4.6.3-9.2-3.1-10.4-3.4-1.2-7.3 1.5-9 6.1s-.3 9.2 3.1 10.4c3.7 1.4 7.4-1.7 9-6.1zm-8.9-3.1c1-3 3.2-4.5 4.6-4 1.3.5 2.1 3.1 1 6s-3.2 4.5-4.6 4c-1.3-.4-2-3-1-6z"/></g><g id="Group_12928_1_" transform="translate(526.375)"><path id="Path_18053_1_" class="st1" d="M-183.4-1403.7h-8.6v-5.1c0-4.7-3.8-8.6-8.6-8.6h-96.1c-4.7 0-8.6 3.8-8.6 8.6v5.1h-8.6c-2.8 0-5.1 2.3-5.1 5.1v20.6c0 2.8 2.3 5.1 5.1 5.1h8.6v56.6c0 2.8 2.3 5.1 5.1 5.1h3.4v8.6c0 2.8 2.3 5.1 5.1 5.1h10.3c2.8 0 5.1-2.3 5.2-5.1v-8.6h54.9v8.6c0 2.8 2.3 5.1 5.2 5.1h10.3c2.8 0 5.1-2.3 5.1-5.1v-8.6h3.4c2.8 0 5.1-2.3 5.1-5.1v-56.6h8.6c2.8 0 5.1-2.3 5.1-5.1v-20.6c.2-2.8-2.1-5.1-4.9-5.1zm-121.9 27.5h-8.6c-.9 0-1.7-.8-1.7-1.7v-20.6c0-.9.8-1.7 1.7-1.7h8.6v24zm25.8 73.8c0 .9-.8 1.7-1.7 1.7h-10.3c-.9 0-1.7-.8-1.7-1.7v-8.6h13.7v8.6zm75.5 0c0 .9-.8 1.7-1.7 1.7H-216c-.9 0-1.7-.8-1.7-1.7v-8.6h13.7v8.6zm8.6-13.7c0 .9-.8 1.7-1.7 1.7h-103c-.9 0-1.7-.8-1.7-1.7v-92.7c0-2.8 2.3-5.1 5.1-5.1h96.1c2.8 0 5.1 2.3 5.1 5.1v92.7zm13.7-61.8c0 .9-.8 1.7-1.7 1.7h-8.6v-24h8.6c.9 0 1.7.8 1.7 1.7v20.6z"/><path id="Path_18054_1_" class="st1" d="M-289.8-1352.2h82.4c.9 0 1.7-.8 1.7-1.7 0-.9-.8-1.7-1.7-1.7h-82.4c-.9 0-1.7.8-1.7 1.7-.1 1 .7 1.7 1.7 1.7z"/><path id="Path_18055_1_" class="st1" d="M-289.8-1345.3h82.4c.9 0 1.7-.8 1.7-1.7 0-.9-.8-1.7-1.7-1.7h-82.4c-.9 0-1.7.8-1.7 1.7-.1.9.7 1.7 1.7 1.7z"/><path id="Path_18056_1_" class="st1" d="M-289.8-1338.5h82.4c.9 0 1.7-.8 1.7-1.7 0-.9-.8-1.7-1.7-1.7h-82.4c-.9 0-1.7.8-1.7 1.7-.1 1 .7 1.7 1.7 1.7z"/><path id="Path_18057_1_" class="st1" d="M-193.7-1419c.9 0 1.7-.8 1.7-1.7v-15.6c0-.9-.8-1.7-1.7-1.7h-109.8c-.9 0-1.7.8-1.7 1.7v15.6c0 .9.8 1.7 1.7 1.7s1.7-.8 1.7-1.7v-13.9h106.4v13.9c0 1 .7 1.7 1.7 1.7z"/><g id="Group_12927_1_" transform="translate(20.595 27.46)"><path id="Path_18074_1_" class="st0" d="M-240.1-1359h17.2v10.3h-17.2v-10.3z"/><path id="Path_18073_1_" class="st0" d="M-315.6-1359h17.2v10.3h-17.2v-10.3z"/><path id="Path_18058_1_" class="st0" d="M-224.6-1434.6h-89.2c-.9 0-1.7.8-1.7 1.7v36h25.3l-6.9-3.4h-13.3c-.9 0-1.7-.8-1.7-1.7 0-.9.8-1.7 1.7-1.7h34.3c.9 0 1.7.8 1.7 1.7 0 .9-.8 1.7-1.7 1.7h-13.3l6.9 3.4h40.4l-6.9-3.4h-13.3c-.9 0-1.7-.8-1.7-1.7 0-.9.8-1.7 1.7-1.7h34.3c.9 0 1.7.8 1.7 1.7 0 .9-.8 1.7-1.7 1.7h-13.3l6.9 3.4h11.6v-36c-.1-.9-.9-1.7-1.8-1.7z"/><path id="Path_18059_1_" class="st1" d="M-224.6-1438h-89.2c-2.8 0-5.1 2.3-5.1 5.1v37.8c0 .9.8 1.7 1.7 1.7h96.1c.9 0 1.7-.8 1.7-1.7v-37.8c-.1-2.8-2.4-5.1-5.2-5.1zm1.7 41.2h-11.6l-6.9-3.4h13.3c.9 0 1.7-.8 1.7-1.7 0-.9-.8-1.7-1.7-1.7h-34.3c-.9 0-1.7.8-1.7 1.7 0 .9.8 1.7 1.7 1.7h13.3l6.9 3.4h-40.4l-6.9-3.4h13.3c.9 0 1.7-.8 1.7-1.7 0-.9-.8-1.7-1.7-1.7h-34.3c-.9 0-1.7.8-1.7 1.7 0 .9.8 1.7 1.7 1.7h13.3l6.9 3.4h-25.3v-36c0-.9.8-1.7 1.7-1.7h89.2c.9 0 1.7.8 1.7 1.7l.1 36z"/><path id="Path_18060_1_" class="st1" d="M-296.7-1362.5h-20.6c-.9 0-1.7.8-1.7 1.7v13.7c0 .9.8 1.7 1.7 1.7h20.6c.9 0 1.7-.8 1.7-1.7v-13.7c0-.9-.7-1.7-1.7-1.7zm-1.7 13.8h-17.2v-10.3h17.2v10.3z"/><path id="Path_18061_1_" class="st1" d="M-221.2-1362.5h-20.6c-.9 0-1.7.8-1.7 1.7v13.7c0 .9.8 1.7 1.7 1.7h20.6c.9 0 1.7-.8 1.7-1.7v-13.7c0-.9-.7-1.7-1.7-1.7zm-1.7 13.8h-17.2v-10.3h17.2v10.3z"/></g><path id="Path_18062_1_" class="st1" d="M-231.5-1331.6h-34.3c-.9 0-1.7.8-1.7 1.7v6.9c0 .9.8 1.7 1.7 1.7h34.3c.9 0 1.7-.8 1.7-1.7v-6.9c0-.9-.7-1.7-1.7-1.7zm-1.7 6.9h-30.9v-3.4h30.9v3.4z"/></g><g id="Group_12930_1_" transform="translate(758.921)"><g id="Group_12929_1_"><path id="Path_18064_1_" class="st1" d="M-179.2-1403.5l-68.7-34.3c-.5-.2-1-.2-1.5 0l-68.6 34.3c-.6.3-.9.9-.9 1.5v15.4c0 .9.8 1.7 1.7 1.7.3 0 .5-.1.8-.2l4.4-2.2v88.3c0 .9.8 1.7 1.7 1.7s1.7-.8 1.7-1.7v-90l60.1-30 60.1 30v90c0 .9.8 1.7 1.7 1.7.9 0 1.7-.8 1.7-1.7v-88.3l4.4 2.2c.9.4 1.9.1 2.3-.8.1-.2.2-.5.2-.8v-15.4c-.2-.5-.5-1.1-1.1-1.4zm-2.5 14.1l-66.2-33.1c-.5-.2-1-.2-1.5 0l-66.2 33.1v-11.5l66.9-33.5 66.9 33.5.1 11.5z"/></g><path id="Path_18065_1_" class="st1" d="M-271-1331.6h-30.9c-.9 0-1.7.8-1.7 1.7v30.9c0 .9.8 1.7 1.7 1.7h30.9c.9 0 1.7-.8 1.7-1.7v-30.9c.1-.9-.7-1.7-1.7-1.7zm-1.7 30.9h-27.5v-27.5h27.5v27.5z"/><path id="Path_18066_1_" class="st1" d="M-195.4-1331.6h-30.9c-.9 0-1.7.8-1.7 1.7v30.9c0 .9.8 1.7 1.7 1.7h30.9c.9 0 1.7-.8 1.7-1.7v-30.9c0-.9-.8-1.7-1.7-1.7zm-1.8 30.9h-27.5v-27.5h27.5v27.5z"/><path id="Path_18067_1_" class="st1" d="M-233.2-1331.6h-30.9c-.9 0-1.7.8-1.7 1.7v30.9c0 .9.8 1.7 1.7 1.7h30.9c.9 0 1.7-.8 1.7-1.7v-30.9c0-.9-.8-1.7-1.7-1.7zm-1.7 30.9h-27.5v-27.5h27.5v27.5z"/><path id="Path_18068_1_" class="st1" d="M-271-1369.4h-30.9c-.9 0-1.7.8-1.7 1.7v30.9c0 .9.8 1.7 1.7 1.7h30.9c.9 0 1.7-.8 1.7-1.7v-30.9c.1-.9-.7-1.7-1.7-1.7zm-1.7 30.9h-27.5v-27.5h27.5v27.5z"/><path id="Path_18069_1_" class="st1" d="M-195.4-1369.4h-30.9c-.9 0-1.7.8-1.7 1.7v30.9c0 .9.8 1.7 1.7 1.7h30.9c.9 0 1.7-.8 1.7-1.7v-30.9c0-.9-.8-1.7-1.7-1.7zm-1.8 30.9h-27.5v-27.5h27.5v27.5z"/><path id="Path_18070_1_" class="st1" d="M-233.2-1369.4h-30.9c-.9 0-1.7.8-1.7 1.7v30.9c0 .9.8 1.7 1.7 1.7h30.9c.9 0 1.7-.8 1.7-1.7v-30.9c0-.9-.8-1.7-1.7-1.7zm-1.7 30.9h-27.5v-27.5h27.5v27.5z"/></g><g id="Group_12931_1_" transform="translate(991.468)"><path id="Path_18071_1_" class="st0" d="M-248.6-1402c0 .9-.8 1.7-1.7 1.7-.5 0-.9-.2-1.2-.5l-5.7-5.7-5.7 5.7c-.7.7-1.8.7-2.4 0l-5.7-5.7-5.7 5.7c-.7.7-1.8.7-2.4 0-.3-.3-.5-.8-.5-1.2v-32.6h-36v103h78.2c.3-.3.5-.7.6-1.1l-16-16.4c-.6-.6-.7-1.6-.1-2.3l5.1-6.4c.6-.7 1.6-.8 2.3-.3l32.8 22.4v-98.8h-36l.1 32.5z"/><path id="Path_18072_1_" class="st1" d="M-205.1-1330.6l-.3-.3-3.7-2.5v-102.9c0-.9-.8-1.7-1.7-1.7h-106.4c-.9 0-1.7.8-1.7 1.7v106.4c0 .9.8 1.7 1.7 1.7h17.8l22.4 16.8c.1.1.3.2.4.2l34.3 13.7c.9.4 1.9 0 2.2-.9.4-.9 0-1.9-.9-2.2h-.1l-34.1-13.6-18.6-13.9h18l20.2 7.4c.3.1.6.1.9.1.6-.1 14.1-2.9 19.2-7.9 1.4-1.2 2.2-2.9 2.3-4.7 0-.4-.2-.9-.5-1.2l-15.6-15.9 3.2-4 38.5 26.2 26.3 30.3c.6.7 1.7.8 2.4.2s.8-1.7.2-2.4l-26.4-30.6zm-71-104h24v28.5l-3.9-3.9c-.7-.7-1.8-.7-2.4 0l-5.7 5.7-5.7-5.7c-.7-.7-1.8-.7-2.4 0l-3.9 3.9v-28.5zm21.2 110.4l-10.9-4h23.3c-4 1.8-8.2 3.1-12.4 4zm42.3-11.5l-32.8-22.4c-.7-.5-1.7-.4-2.3.3l-5.1 6.4c-.5.7-.5 1.7.1 2.3l16 16.4c-.1.4-.4.8-.6 1.1h-78.2v-103h36v32.6c0 .9.8 1.7 1.7 1.7.5 0 .9-.2 1.2-.5l5.7-5.7 5.7 5.7c.7.7 1.8.7 2.4 0l5.7-5.7 5.7 5.7c.7.7 1.8.7 2.4 0 .3-.3.5-.8.5-1.2v-32.6h36l-.1 98.9z"/></g><path id="Line_44_1_" class="st2" d="M-255.9-1298.9H-319"/><path id="Line_45_1_" class="st2" d="M-23.5-1298.9h-95.2"/><path id="Line_46_1_" class="st2" d="M239-1298.9H113.2"/><path id="Line_47_1_" class="st2" d="M448.2-1298.9H322.4"/><path id="Line_48_1_" class="st2" d="M749.5-1298.9H572"/><path id="Line_49_1_" class="st2" d="M877.4-1298.9h-66"/><path id="Rectangle_369_1_" class="st3" d="M-21.7-1302.4H5.4v21.6h-27.1z"/><path id="Rectangle_370_1_" class="st3" d="M233.1-1311h9.2v28.7h-9.2z"/><path id="Rectangle_371_1_" class="st3" d="M314-1311h8.3v28.7H314z"/></g></g><path id="Path_18081_1_" d="M1197.1 137v39" fill="none" stroke="#414141" stroke-width="4"/><path class="st2" d="M2.3 176.1v-37"/><path id="newblue_1_" d="M3 176v-36.9h60.5c1.8 0 3.6-.5 5.2-1.5l5.1-3.2c2-1.3 4.5-1.4 6.7-.4l5.8 2.9c3.2 1.6 7 1.5 10.1-.3l4.1-2.4c2.6-1.5 5.7-1.5 8.4-.1l3.6 2.1c3.6 2 8 2 11.6.1l3.7-2.1c2.8-1.5 6.1-1.6 8.8.1l3.9 2.1c3.6 1.8 7.9 1.7 11.4-.2l3.6-2c2.7-1.5 6-1.5 8.6 0l3.6 2c3.5 2 7.7 2 11.2 0l3.5-1.9c2.8-1.6 6.3-1.5 9 .2l4.9 3c1.5.9 3.3 1.4 5.1 1.4h398.2V176h0v-36.9h597.2l.3 36.9" fill="none" stroke="#1da3d9" stroke-width="6" stroke-miterlimit="10"/></svg>
